<svg width="800" height="800" viewBox="0 0 800 800" fill="none" xmlns="http://www.w3.org/2000/svg">
<path d="M400 75C335.721 75 272.886 94.0609 219.44 129.772C165.994 165.484 124.338 216.242 99.7392 275.628C75.1407 335.014 68.7046 400.361 81.2448 463.404C93.785 526.448 124.738 584.358 170.19 629.81C215.642 675.262 273.552 706.215 336.596 718.755C399.64 731.295 464.986 724.859 524.372 700.261C583.758 675.662 634.516 634.006 670.228 580.56C705.939 527.114 725 464.279 725 400C724.9 313.835 690.627 231.228 629.7 170.3C568.772 109.373 486.165 75.0996 400 75ZM554.785 343.091L371.436 518.091C366.774 522.526 360.585 525 354.15 525C347.716 525 341.527 522.526 336.865 518.091L245.215 430.591C240.427 426.004 237.655 419.705 237.508 413.076C237.361 406.447 239.852 400.031 244.432 395.237C249.013 390.443 255.309 387.663 261.937 387.508C268.566 387.353 274.985 389.835 279.785 394.409L354.15 465.43L520.215 306.909C525.015 302.335 531.434 299.853 538.063 300.008C544.691 300.163 550.987 302.943 555.568 307.737C560.148 312.531 562.639 318.947 562.492 325.576C562.345 332.205 559.573 338.504 554.785 343.091Z" fill="#EE4D2D"/>
</svg>
