<svg width="599" height="601" viewBox="0 0 599 601" fill="none" xmlns="http://www.w3.org/2000/svg">
<path fill-rule="evenodd" clip-rule="evenodd" d="M301.063 600.725C378.125 599.987 454.413 567.988 509.275 513.65C574.438 449.1 607.988 353.612 596.288 262.45C576.225 106.212 448.1 0.199997 299.138 0.199997C185.975 0.199997 75.9751 71.1625 27.7251 174.062C-9.2124 252.837 -9.2749 347.95 27.7251 426.875C75.6251 529.05 183.825 599.637 297.213 600.725C298.5 600.737 299.775 600.737 301.063 600.725ZM297.538 550.688C182.438 549.575 75.0501 460.35 53.6876 345.962C38.6376 265.312 67.0626 178.05 126.25 120.775C195.375 53.9 304 31.4875 394.313 69.4C475.138 103.325 535.613 182.075 546.763 268.838C556.313 343.2 529.688 421.138 477.375 474.838C431.475 521.925 367.125 550.038 300.738 550.688C299.675 550.688 298.6 550.688 297.538 550.688ZM142.763 422.063L264.438 300.387L142.638 178.588L177.688 143.55L299.488 265.35L425.463 139.375L460.563 174.463L334.588 300.45L460.813 426.675L425.775 461.725L299.538 335.488L177.863 457.163L142.763 422.063Z" fill="#D0011B"/>
</svg>
